<svg xmlns="http://www.w3.org/2000/svg" width="1024" height="1024"><defs><clipPath id="clip-Artboard_5"><path d="M0 0h1024v1024H0z"/></clipPath><style>.cls-2{fill:#0c79c7}</style></defs><g id="Artboard_5" style="clip-path:url(#clip-Artboard_5)"><path style="fill:#fff" d="M0 0h1024v1024H0z"/><g id="Group_16" transform="translate(208.086 184.34)"><g id="Group_7" transform="translate(0 153.842)"><path id="Path_10" class="cls-2" d="M579 422.254H47.787C14 422.254.7 395.7 15.411 370.217L203.834 6.784a9.839 9.839 0 0 1 1.323-1.972c2.321-2.644 4.578-4.269 6.6-4.105 1.733.146 3.43 1.514 5.054 3.649v.018L228.6 38.037l8.338 23.847A31.946 31.946 0 0 0 285.1 77.69a10.783 10.783 0 0 1 16.222 5.9l7.882 25.261 2.75 8.805a32.8 32.8 0 0 0 18.83 20.895 31.928 31.928 0 0 0 42.372-20.121l34.211-109.6a.067.067 0 0 0 .018-.055L408 6.8a10.42 10.42 0 0 1 1.571-3.113c1.617-2.16 3.319-3.54 5.072-3.673 1.715-.146 3.613 1.022 5.583 2.992.128.128.255.255.383.4l.146.292L611.25 371.1c11.461 19.854 9.66 51.154-32.25 51.154Z" transform="translate(-9.473)"/><path id="Path_9" class="cls-2" d="M579 422.254H47.787C14 422.254.7 395.7 15.411 370.217L203.834 6.784a9.839 9.839 0 0 1 1.323-1.972c2.321-2.644 4.578-4.269 6.6-4.105 1.733.146 3.43 1.514 5.054 3.649v.018L228.6 38.037l8.338 23.847A31.946 31.946 0 0 0 285.1 77.69a10.783 10.783 0 0 1 16.222 5.9l7.882 25.261 2.75 8.805a32.8 32.8 0 0 0 18.83 20.895 31.928 31.928 0 0 0 42.372-20.121l34.211-109.6a.067.067 0 0 0 .018-.055L408 6.8a10.42 10.42 0 0 1 1.571-3.113c1.617-2.16 3.319-3.54 5.072-3.673 1.715-.146 3.613 1.022 5.583 2.992.128.128.255.255.383.4l.146.292L611.25 371.1c11.461 19.854 9.66 51.154-32.25 51.154Z" transform="translate(-9.473)"/></g><g id="Group_9" transform="translate(141.408)"><path id="Path_11" class="cls-2" d="M98.519 125.937a16.969 16.969 0 0 1-15.692-10.51c-4.806-11.674-20.314-45.164-34.172-59.739C28.99 35.006-.663 21.579-.96 21.445A16.96 16.96 0 0 1 12.855-9.532c1.458.649 35.987 16.194 60.381 41.849 20.727 21.8 38.952 65.322 40.962 70.213a16.968 16.968 0 0 1-15.68 23.407Z" transform="translate(10.995 44.292)"/><path id="Path_19" class="cls-2" d="M5.96 126.508A16.959 16.959 0 0 1-11 109.548V5.959a16.96 16.96 0 1 1 33.919 0v103.589a16.959 16.959 0 0 1-16.959 16.96Z" transform="translate(154.378 11)"/><path id="Path_12" class="cls-2" d="M5.974 107.7a16.971 16.971 0 0 1-16.616-20.4c.282-1.351 7.119-33.371 26.39-57.459C34.919 5.875 65.221-8.739 66.5-9.349a16.96 16.96 0 0 1 14.622 30.606c-.245.118-24.663 11.988-38.888 29.771C28.122 68.668 22.61 94 22.556 94.253A16.988 16.988 0 0 1 5.974 107.7Z" transform="translate(209.88 48.918)"/></g></g></g></svg>