<svg width="391" height="383" viewBox="0 0 391 383" fill="none" xmlns="http://www.w3.org/2000/svg">
<path d="M0.780965 369.922C0.198923 371.174 0.742061 372.661 1.9941 373.243L22.3972 382.728C23.6492 383.31 25.136 382.767 25.7181 381.515C26.3001 380.263 25.757 378.776 24.505 378.194L6.36887 369.763L14.7999 351.627C15.3819 350.375 14.8388 348.888 13.5868 348.306C12.3347 347.724 10.8479 348.267 10.2659 349.519L0.780965 369.922ZM219.397 83.4723L218.764 85.8907L219.397 83.4723ZM118.434 309.437L120.073 311.325L118.434 309.437ZM310.744 117.127L312.472 118.933L310.744 117.127ZM111.703 204.628L114.025 203.699L111.703 204.628ZM3.04798 370.976C3.90579 373.324 3.90582 373.324 3.90585 373.324C3.90586 373.324 3.90589 373.324 3.90592 373.324C3.90597 373.324 3.90603 373.324 3.9061 373.324C3.90625 373.324 3.90644 373.324 3.90666 373.324C3.90712 373.324 3.90774 373.323 3.90852 373.323C3.91008 373.322 3.9123 373.322 3.91517 373.321C3.92091 373.319 3.92925 373.315 3.94017 373.311C3.96201 373.303 3.99416 373.292 4.03646 373.276C4.12104 373.245 4.24616 373.199 4.41036 373.138C4.73874 373.016 5.22343 372.835 5.85264 372.597L4.08477 367.92C3.46485 368.154 2.98917 368.332 2.66947 368.451C2.50963 368.51 2.38878 368.555 2.30841 368.584C2.26822 368.599 2.23815 368.61 2.21838 368.617C2.20849 368.621 2.20119 368.624 2.19647 368.625C2.19412 368.626 2.19241 368.627 2.19136 368.627C2.19083 368.627 2.19047 368.627 2.19027 368.628C2.19017 368.628 2.19011 368.628 2.19009 368.628C2.19008 368.628 2.19009 368.628 2.1901 368.628C2.1901 368.628 2.19012 368.628 2.19012 368.628C2.19014 368.628 2.19016 368.628 3.04798 370.976ZM9.67513 371.13C10.8137 370.687 12.1039 370.18 13.5304 369.613L11.6825 364.967C10.2683 365.529 8.98983 366.031 7.86257 366.47L9.67513 371.13ZM17.3423 368.081C18.5469 367.593 19.818 367.073 21.1496 366.523L19.2403 361.902C17.919 362.447 16.6578 362.963 15.4628 363.448L17.3423 368.081ZM24.9548 364.936C26.1812 364.421 27.4475 363.884 28.7501 363.326L26.7829 358.729C25.4902 359.283 24.2335 359.815 23.0164 360.327L24.9548 364.936ZM32.5344 361.693C33.7669 361.156 35.026 360.604 36.3088 360.035L34.2841 355.464C33.0111 356.027 31.7617 356.576 30.5386 357.108L32.5344 361.693ZM40.0745 358.353C41.3094 357.797 42.5626 357.227 43.832 356.645L41.748 352.1C40.4889 352.678 39.2456 353.243 38.0204 353.795L40.0745 358.353ZM47.581 354.911C48.8108 354.337 50.0532 353.752 51.3061 353.157L49.16 348.641C47.9178 349.231 46.686 349.811 45.4664 350.38L47.581 354.911ZM55.0183 351.376C56.2457 350.782 57.4813 350.178 58.7233 349.566L56.511 345.082C55.2805 345.689 54.0562 346.287 52.8397 346.876L55.0183 351.376ZM62.4187 347.724C63.6422 347.109 64.8703 346.485 66.1013 345.853L63.8172 341.405C62.5987 342.03 61.3829 342.648 60.1712 343.258L62.4187 347.724ZM69.7592 343.954C70.9738 343.317 72.1898 342.673 73.4057 342.021L71.0432 337.614C69.8411 338.259 68.6384 338.896 67.4368 339.526L69.7592 343.954ZM77.037 340.052C78.243 339.39 79.4474 338.722 80.6488 338.046L78.1993 333.688C77.0132 334.354 75.8237 335.014 74.6322 335.668L77.037 340.052ZM84.24 336.003C85.4354 335.314 86.6263 334.618 87.8112 333.917L85.2641 329.614C84.0964 330.306 82.9223 330.991 81.7432 331.671L84.24 336.003ZM91.3575 331.788C92.5377 331.069 93.7104 330.344 94.8741 329.614L92.2159 325.379C91.072 326.097 89.9184 326.81 88.7567 327.518L91.3575 331.788ZM98.3693 327.385C99.5351 326.629 100.69 325.867 101.832 325.101L99.0458 320.949C97.9264 321.701 96.7937 322.447 95.6494 323.189L98.3693 327.385ZM105.257 322.759C106.399 321.963 107.526 321.162 108.637 320.356L105.7 316.309C104.616 317.096 103.515 317.879 102.398 318.657L105.257 322.759ZM111.975 317.879C113.093 317.031 114.191 316.177 115.268 315.318L112.151 311.409C111.106 312.241 110.039 313.071 108.952 313.896L111.975 317.879ZM118.499 312.671C119.03 312.223 119.555 311.775 120.073 311.325L116.795 307.549C116.296 307.982 115.79 308.415 115.277 308.847L118.499 312.671ZM120.073 311.325C120.571 310.893 121.071 310.457 121.573 310.018L118.282 306.254C117.784 306.689 117.289 307.12 116.795 307.549L120.073 311.325ZM124.61 307.344C125.622 306.448 126.64 305.538 127.666 304.617L124.325 300.897C123.307 301.812 122.297 302.713 121.294 303.602L124.61 307.344ZM130.65 301.92C131.65 301.009 132.657 300.088 133.669 299.156L130.281 295.478C129.277 296.403 128.278 297.318 127.285 298.221L130.65 301.92ZM136.628 296.414C137.611 295.498 138.598 294.572 139.589 293.638L136.159 290C135.175 290.928 134.195 291.847 133.219 292.756L136.628 296.414ZM142.548 290.832C143.515 289.909 144.486 288.978 145.459 288.04L141.988 284.441C141.021 285.373 140.057 286.297 139.097 287.213L142.548 290.832ZM148.386 285.2C149.347 284.263 150.311 283.318 151.276 282.367L147.765 278.806C146.807 279.752 145.85 280.69 144.895 281.621L148.386 285.2ZM154.153 279.514C155.113 278.557 156.074 277.594 157.037 276.624L153.487 273.102C152.532 274.065 151.577 275.022 150.623 275.973L154.153 279.514ZM159.87 273.752C160.816 272.789 161.761 271.821 162.707 270.846L159.12 267.363C158.181 268.331 157.241 269.293 156.302 270.25L159.87 273.752ZM165.531 267.921C166.463 266.951 167.395 265.975 168.326 264.995L164.701 261.552C163.776 262.525 162.851 263.494 161.925 264.458L165.531 267.921ZM171.117 262.04C172.041 261.056 172.965 260.067 173.886 259.074L170.222 255.672C169.307 256.658 168.39 257.64 167.472 258.617L171.117 262.04ZM176.636 256.096C177.551 255.099 178.465 254.098 179.376 253.094L175.673 249.734C174.768 250.731 173.861 251.725 172.953 252.715L176.636 256.096ZM182.092 250.082C182.995 249.075 183.895 248.065 184.792 247.052L181.048 243.737C180.158 244.743 179.265 245.745 178.369 246.744L182.092 250.082ZM187.474 244.004C188.365 242.985 189.253 241.963 190.138 240.939L186.353 237.671C185.476 238.687 184.595 239.701 183.71 240.713L187.474 244.004ZM192.78 237.858C193.658 236.828 194.532 235.795 195.402 234.76L191.574 231.543C190.712 232.569 189.845 233.593 188.974 234.615L192.78 237.858ZM198.008 231.638C198.872 230.595 199.731 229.551 200.586 228.505L196.713 225.342C195.867 226.379 195.015 227.414 194.158 228.447L198.008 231.638ZM203.144 225.35C203.996 224.291 204.842 223.23 205.683 222.169L201.763 219.065C200.931 220.116 200.092 221.166 199.248 222.215L203.144 225.35ZM208.186 218.983C209.022 217.909 209.853 216.834 210.676 215.759L206.707 212.719C205.892 213.783 205.07 214.847 204.242 215.91L208.186 218.983ZM213.136 212.519C213.949 211.438 214.754 210.358 215.552 209.277L211.529 206.308C210.741 207.376 209.944 208.444 209.14 209.513L213.136 212.519ZM217.967 205.973C218.764 204.871 219.553 203.77 220.332 202.67L216.253 199.779C215.483 200.866 214.704 201.953 213.917 203.041L217.967 205.973ZM222.664 199.344C223.444 198.218 224.214 197.093 224.974 195.97L220.833 193.168C220.084 194.275 219.324 195.385 218.554 196.496L222.664 199.344ZM227.224 192.604C227.98 191.458 228.725 190.314 229.458 189.172L225.25 186.47C224.529 187.595 223.795 188.721 223.05 189.85L227.224 192.604ZM231.637 185.727C232.358 184.572 233.066 183.419 233.761 182.268L229.481 179.683C228.799 180.813 228.103 181.946 227.395 183.082L231.637 185.727ZM235.86 178.734C236.545 177.559 237.216 176.388 237.873 175.22L233.514 172.77C232.871 173.914 232.213 175.062 231.541 176.214L235.86 178.734ZM239.859 171.611C240.51 170.403 241.144 169.2 241.76 168.002L237.314 165.714C236.713 166.884 236.093 168.059 235.457 169.239L239.859 171.611ZM243.596 164.34C244.204 163.096 244.792 161.858 245.359 160.626L240.817 158.535C240.267 159.731 239.695 160.935 239.104 162.146L243.596 164.34ZM247.02 156.899C247.572 155.615 248.102 154.339 248.606 153.07L243.96 151.223C243.473 152.446 242.962 153.679 242.427 154.922L247.02 156.899ZM250.056 149.259C250.537 147.934 250.989 146.618 251.412 145.312L246.655 143.772C246.251 145.02 245.818 146.281 245.356 147.553L250.056 149.259ZM252.6 141.391C252.985 140.025 253.335 138.671 253.649 137.33L248.78 136.19C248.484 137.456 248.153 138.737 247.787 140.035L252.6 141.391ZM254.493 133.276C254.748 131.875 254.96 130.489 255.128 129.119L250.165 128.511C250.01 129.78 249.812 131.071 249.574 132.382L254.493 133.276ZM255.504 124.929C255.582 123.507 255.609 122.104 255.58 120.721L250.581 120.825C250.607 122.074 250.583 123.351 250.511 124.653L255.504 124.929ZM255.306 116.443C255.149 115.012 254.926 113.607 254.634 112.228L249.743 113.263C249.999 114.473 250.196 115.715 250.335 116.988L255.306 116.443ZM253.509 108.057C253.053 106.68 252.519 105.337 251.904 104.03L247.38 106.16C247.908 107.281 248.368 108.438 248.763 109.63L253.509 108.057ZM249.813 100.224C249.042 99.0069 248.19 97.831 247.256 96.698L243.398 99.8779C244.2 100.851 244.93 101.859 245.589 102.9L249.813 100.224ZM244.329 93.5463C243.303 92.5633 242.206 91.6214 241.035 90.7218L237.988 94.6864C239.019 95.4786 239.978 96.3023 240.869 97.1559L244.329 93.5463ZM237.545 88.3013C236.373 87.5675 235.142 86.8686 233.851 86.2052L231.565 90.652C232.736 91.2536 233.844 91.8832 234.891 92.5392L237.545 88.3013ZM230.014 84.412C228.764 83.8822 227.467 83.3808 226.121 82.9082L224.464 87.6257C225.715 88.0649 226.914 88.5284 228.062 89.0152L230.014 84.412ZM222.128 81.6322C221.44 81.4328 220.741 81.24 220.03 81.0539L218.764 85.8907C219.433 86.0661 220.091 86.2474 220.736 86.4345L222.128 81.6322ZM220.03 81.0539C219.359 80.878 218.689 80.7093 218.022 80.5475L216.845 85.407C217.482 85.5614 218.122 85.7226 218.764 85.8907L220.03 81.0539ZM214.04 79.6612C212.69 79.3875 211.349 79.1426 210.016 78.9261L209.214 83.8614C210.482 84.0674 211.759 84.3005 213.046 84.5615L214.04 79.6612ZM205.979 78.3532C204.607 78.1868 203.245 78.0507 201.893 77.9441L201.5 82.9287C202.782 83.0297 204.074 83.1588 205.377 83.3168L205.979 78.3532ZM197.828 77.7111C196.443 77.6617 195.068 77.6435 193.705 77.6559L193.751 82.6557C195.039 82.644 196.339 82.6612 197.65 82.7079L197.828 77.7111ZM189.62 77.7854C188.24 77.8606 186.873 77.9674 185.519 78.1049L186.024 83.0794C187.301 82.9497 188.59 82.849 189.892 82.778L189.62 77.7854ZM181.444 78.6163C180.085 78.8198 178.739 79.0546 177.407 79.3197L178.384 84.2235C179.637 83.9739 180.904 83.7529 182.184 83.5612L181.444 78.6163ZM173.386 80.2225C172.052 80.5564 170.734 80.9211 169.431 81.3156L170.879 86.1011C172.105 85.73 173.345 85.387 174.6 85.0729L173.386 80.2225ZM165.526 82.6029C164.229 83.0659 162.949 83.5587 161.687 84.0804L163.596 88.7015C164.784 88.2107 165.987 87.7472 167.207 87.3118L165.526 82.6029ZM157.933 85.7394C156.689 86.3256 155.463 86.9401 154.256 87.582L156.603 91.9968C157.74 91.3925 158.894 90.814 160.064 90.2624L157.933 85.7394ZM150.676 89.5965C149.498 90.2969 148.339 91.0237 147.199 91.7759L149.954 95.9488C151.028 95.2395 152.121 94.5543 153.231 93.8944L150.676 89.5965ZM143.825 94.1178C142.718 94.9244 141.632 95.7554 140.566 96.6096L143.692 100.511C144.699 99.7044 145.725 98.9196 146.77 98.1583L143.825 94.1178ZM137.425 99.2448C136.397 100.147 135.389 101.072 134.404 102.017L137.865 105.626C138.798 104.731 139.751 103.856 140.723 103.002L137.425 99.2448ZM131.509 104.917C130.565 105.905 129.643 106.912 128.743 107.938L132.502 111.235C133.355 110.262 134.229 109.308 135.124 108.372L131.509 104.917ZM126.108 111.071C125.252 112.134 124.418 113.214 123.607 114.31L127.627 117.284C128.397 116.243 129.189 115.217 130.002 114.208L126.108 111.071ZM121.242 117.648C120.476 118.777 119.734 119.921 119.014 121.079L123.262 123.717C123.946 122.616 124.652 121.528 125.38 120.456L121.242 117.648ZM116.927 124.595C116.254 125.78 115.605 126.979 114.981 128.19L119.424 130.482C120.018 129.33 120.636 128.19 121.276 127.061L116.927 124.595ZM113.178 131.859C112.601 133.094 112.048 134.34 111.521 135.596L116.131 137.532C116.633 136.337 117.159 135.151 117.708 133.975L113.178 131.859ZM110.012 139.394C109.534 140.671 109.081 141.957 108.653 143.25L113.401 144.819C113.808 143.588 114.239 142.364 114.695 141.148L110.012 139.394ZM107.448 147.156C107.072 148.467 106.722 149.785 106.398 151.107L111.255 152.294C111.563 151.037 111.896 149.783 112.254 148.536L107.448 147.156ZM105.507 155.101C105.237 156.439 104.994 157.781 104.779 159.126L109.716 159.915C109.92 158.638 110.151 157.363 110.408 156.091L105.507 155.101ZM104.216 163.179C104.057 164.538 103.926 165.897 103.824 167.257L108.81 167.631C108.906 166.342 109.031 165.052 109.182 163.763L104.216 163.179ZM103.605 171.347C103.562 172.715 103.549 174.081 103.566 175.445L108.565 175.384C108.549 174.093 108.562 172.8 108.603 171.506L103.605 171.347ZM103.709 179.547C103.787 180.914 103.897 182.278 104.039 183.637L109.012 183.119C108.878 181.838 108.775 180.551 108.7 179.259L103.709 179.547ZM104.561 187.711C104.768 189.067 105.007 190.417 105.279 191.76L110.179 190.766C109.923 189.504 109.698 188.234 109.504 186.957L104.561 187.711ZM106.196 195.769C106.536 197.099 106.909 198.42 107.317 199.73L112.091 198.247C111.71 197.018 111.36 195.78 111.041 194.532L106.196 195.769ZM108.642 203.631C108.88 204.276 109.127 204.918 109.382 205.556L114.025 203.699C113.786 203.102 113.555 202.502 113.332 201.899L108.642 203.631ZM109.382 205.556C109.651 206.229 109.929 206.888 110.216 207.532L114.784 205.499C114.524 204.914 114.271 204.315 114.025 203.699L109.382 205.556ZM112.039 211.222C112.737 212.496 113.474 213.702 114.252 214.842L118.382 212.024C117.7 211.025 117.047 209.958 116.425 208.821L112.039 211.222ZM116.812 218.189C117.749 219.281 118.732 220.294 119.759 221.228L123.124 217.53C122.253 216.737 121.413 215.873 120.606 214.932L116.812 218.189ZM123.127 223.907C124.313 224.726 125.542 225.456 126.813 226.099L129.071 221.638C128.001 221.096 126.966 220.482 125.969 219.793L123.127 223.907ZM130.746 227.771C132.08 228.239 133.449 228.624 134.849 228.93L135.917 224.045C134.707 223.781 133.534 223.45 132.399 223.053L130.746 227.771ZM139.024 229.604C140.387 229.75 141.775 229.832 143.185 229.851L143.254 224.851C141.991 224.834 140.759 224.761 139.558 224.632L139.024 229.604ZM147.343 229.736C148.706 229.645 150.088 229.502 151.487 229.31L150.807 224.356C149.516 224.534 148.249 224.664 147.009 224.747L147.343 229.736ZM155.494 228.637C156.812 228.377 158.143 228.078 159.488 227.74L158.272 222.891C157.004 223.209 155.756 223.489 154.526 223.732L155.494 228.637ZM163.422 226.658C164.691 226.28 165.972 225.87 167.262 225.43L165.65 220.697C164.417 221.117 163.197 221.508 161.992 221.867L163.422 226.658ZM171.109 224.044C172.336 223.578 173.572 223.087 174.815 222.573L172.903 217.953C171.704 218.449 170.514 218.922 169.335 219.369L171.109 224.044ZM178.543 220.97C179.744 220.434 180.952 219.878 182.166 219.301L180.021 214.784C178.842 215.345 177.67 215.884 176.507 216.403L178.543 220.97ZM185.794 217.529C186.97 216.939 188.151 216.331 189.337 215.706L187.007 211.282C185.849 211.892 184.697 212.485 183.551 213.06L185.794 217.529ZM192.884 213.796C194.036 213.162 195.192 212.514 196.351 211.851L193.87 207.51C192.733 208.16 191.601 208.795 190.474 209.415L192.884 213.796ZM199.83 209.826C200.96 209.157 202.093 208.475 203.229 207.781L200.621 203.515C199.505 204.197 198.392 204.867 197.283 205.524L199.83 209.826ZM206.644 205.662C207.756 204.963 208.87 204.252 209.986 203.531L207.272 199.332C206.172 200.042 205.075 200.742 203.981 201.431L206.644 205.662ZM213.333 201.34C214.433 200.612 215.534 199.874 216.636 199.127L213.831 194.988C212.743 195.725 211.656 196.453 210.572 197.172L213.333 201.34ZM219.924 196.874C221.012 196.12 222.101 195.359 223.191 194.589L220.306 190.505C219.229 191.266 218.152 192.019 217.078 192.763L219.924 196.874ZM226.426 192.282C227.503 191.507 228.58 190.725 229.657 189.936L226.703 185.902C225.637 186.683 224.571 187.457 223.505 188.224L226.426 192.282ZM232.847 187.58C233.91 186.789 234.973 185.991 236.035 185.188L233.019 181.2C231.967 181.996 230.914 182.786 229.861 183.57L232.847 187.58ZM239.194 182.781C240.244 181.975 241.293 181.164 242.34 180.349L239.269 176.403C238.23 177.212 237.191 178.016 236.15 178.814L239.194 182.781ZM245.471 177.896C246.51 177.076 247.547 176.253 248.582 175.426L245.461 171.52C244.434 172.34 243.405 173.157 242.375 173.97L245.471 177.896ZM251.681 172.935C252.71 172.103 253.738 171.267 254.763 170.429L251.597 166.559C250.579 167.391 249.559 168.221 248.537 169.047L251.681 172.935ZM257.83 167.906C258.851 167.061 259.869 166.214 260.885 165.366L257.678 161.529C256.669 162.373 255.657 163.214 254.643 164.053L257.83 167.906ZM263.926 162.811C264.937 161.957 265.946 161.101 266.951 160.244L263.706 156.439C262.707 157.291 261.705 158.142 260.7 158.991L263.926 162.811ZM269.971 157.657C270.973 156.793 271.972 155.93 272.967 155.066L269.688 151.291C268.699 152.15 267.706 153.009 266.709 153.867L269.971 157.657ZM275.965 152.45C276.962 151.576 277.955 150.703 278.942 149.83L275.631 146.083C274.649 146.951 273.662 147.82 272.67 148.689L275.965 152.45ZM281.911 147.196C282.904 146.311 283.892 145.428 284.873 144.547L281.533 140.827C280.556 141.704 279.574 142.582 278.586 143.462L281.911 147.196ZM287.81 141.9C288.801 141.004 289.784 140.111 290.762 139.22L287.394 135.525C286.421 136.411 285.442 137.301 284.456 138.192L287.81 141.9ZM293.672 136.558C294.659 135.653 295.637 134.751 296.608 133.854L293.215 130.182C292.248 131.076 291.273 131.973 290.292 132.874L293.672 136.558ZM299.506 131.167C300.485 130.257 301.455 129.351 302.417 128.45L298.999 124.801C298.041 125.697 297.075 126.6 296.1 127.507L299.506 131.167ZM305.301 125.741C306.274 124.824 307.237 123.914 308.189 123.011L304.749 119.383C303.8 120.282 302.841 121.189 301.872 122.102L305.301 125.741ZM311.061 120.281C311.534 119.83 312.005 119.38 312.472 118.933L309.017 115.32C308.551 115.765 308.082 116.213 307.611 116.662L311.061 120.281ZM312.472 118.933C312.976 118.452 313.476 117.97 313.974 117.487L310.493 113.898C310.004 114.372 309.512 114.846 309.017 115.32L312.472 118.933ZM316.927 114.585C317.912 113.603 318.886 112.619 319.849 111.634L316.272 108.14C315.325 109.109 314.367 110.077 313.398 111.043L316.927 114.585ZM322.715 108.659C323.675 107.65 324.624 106.638 325.561 105.626L321.892 102.23C320.97 103.226 320.037 104.22 319.092 105.214L322.715 108.659ZM328.353 102.57C329.283 101.538 330.201 100.506 331.107 99.474L327.35 96.175C326.458 97.1909 325.555 98.2068 324.639 99.2223L328.353 102.57ZM333.825 96.3383C334.725 95.286 335.613 94.2342 336.488 93.1835L332.647 89.9827C331.785 91.0171 330.911 92.0525 330.025 93.0884L333.825 96.3383ZM339.129 89.9721C340.005 88.893 340.869 87.8156 341.719 86.7403L337.797 83.6386C336.96 84.6974 336.11 85.7584 335.247 86.8209L339.129 89.9721ZM344.263 83.4817C345.115 82.3762 345.954 81.2737 346.779 80.1746L342.781 77.1723C341.968 78.2548 341.142 79.3408 340.303 80.4295L344.263 83.4817ZM349.243 76.8507C350.064 75.7285 350.871 74.6106 351.664 73.4978L347.593 70.5954C346.811 71.6917 346.016 72.7929 345.208 73.8983L349.243 76.8507ZM354.055 70.1C354.85 68.9557 355.63 67.8174 356.395 66.686L352.254 63.8845C351.5 64.9992 350.731 66.1206 349.948 67.248L354.055 70.1ZM358.686 63.2545C359.457 62.0838 360.213 60.9213 360.953 59.7679L356.744 57.0682C356.015 58.2046 355.271 59.35 354.511 60.5035L358.686 63.2545ZM363.17 56.2643C363.91 55.0796 364.633 53.9058 365.339 52.7437L361.067 50.147C360.371 51.292 359.658 52.4486 358.929 53.6159L363.17 56.2643ZM367.46 49.2057C368.177 47.9936 368.875 46.7961 369.554 45.6143L365.219 43.1226C364.55 44.2869 363.862 45.4667 363.156 46.6609L367.46 49.2057ZM371.6 42.0031C372.288 40.7726 372.954 39.5614 373.599 38.3711L369.204 35.9874C368.568 37.1598 367.912 38.3528 367.235 39.565L371.6 42.0031ZM375.552 34.7166C376.212 33.463 376.847 32.236 377.458 31.0376L373.004 28.7662C372.402 29.9459 371.777 31.1539 371.127 32.3884L375.552 34.7166ZM379.317 27.3325C379.95 26.0489 380.554 24.8042 381.127 23.6011L376.614 21.449C376.05 22.6321 375.457 23.8566 374.833 25.1197L379.317 27.3325ZM382.885 19.847C383.492 18.5284 384.057 17.2725 384.582 16.0839L380.008 14.0635C379.493 15.2299 378.938 16.4631 378.342 17.7588L382.885 19.847ZM386.239 12.2492C386.838 10.8298 387.363 9.54855 387.816 8.41731L383.174 6.55867C382.733 7.66181 382.22 8.91422 381.633 10.3041L386.239 12.2492ZM389.328 4.51109C389.563 3.87841 389.738 3.39145 389.856 3.05987C389.914 2.89408 389.959 2.76713 389.989 2.68023C390.004 2.63678 390.015 2.60334 390.023 2.58006C390.027 2.56842 390.03 2.55932 390.033 2.55278C390.034 2.54951 390.035 2.54688 390.035 2.54489C390.036 2.5439 390.036 2.54306 390.036 2.54239C390.036 2.54205 390.036 2.54176 390.036 2.5415C390.036 2.54137 390.036 2.54126 390.037 2.54115C390.037 2.54109 390.037 2.54102 390.037 2.54099C390.037 2.54092 390.037 2.54085 387.668 1.74038C385.3 0.939904 385.3 0.939841 385.3 0.93978C385.3 0.939763 385.3 0.939705 385.3 0.939671C385.3 0.939603 385.3 0.939546 385.3 0.939498C385.3 0.939403 385.3 0.939348 385.3 0.939333C385.3 0.939304 385.3 0.939434 385.3 0.939725C385.3 0.940306 385.299 0.941528 385.299 0.943387C385.297 0.947106 385.295 0.953376 385.292 0.962179C385.286 0.979784 385.277 1.00752 385.264 1.04523C385.238 1.12067 385.197 1.23601 385.143 1.39007C385.034 1.6982 384.867 2.16115 384.641 2.76932L389.328 4.51109Z" fill="#007AFF"/>
</svg>
