<svg width="306" height="222" viewBox="0 0 306 222" fill="none" xmlns="http://www.w3.org/2000/svg">
<path d="M136.969 133.671L109.234 160.706L115.782 198.879L81.5 180.856L47.2184 198.879L53.7656 160.706L26.0313 133.671L64.3592 128.102L81.5 93.3709L98.6408 128.102L136.969 133.671Z" fill="#007AFF" fill-opacity="0.1"/>
<path fill-rule="evenodd" clip-rule="evenodd" d="M106.685 117.03L81.5 66L56.3151 117.03L0 125.213L40.75 164.935L31.1302 221.022L81.5 194.541L131.87 221.022L122.25 164.935L163 125.213L106.685 117.03ZM99.9689 126.274L141.267 132.275L111.383 161.404L118.438 202.535L81.5 183.115L44.5622 202.535L51.6167 161.404L21.7333 132.275L63.0311 126.274L81.5 88.8518L99.9689 126.274Z" fill="#007AFF" fill-opacity="0.1"/>
<path d="M251.13 136.976L266.013 146.914L266.45 147.206L266.938 147.011L283.562 140.385L278.71 157.61L278.567 158.116L278.903 158.521L290.342 172.283L272.46 172.991L271.935 173.012L271.654 173.456L262.1 188.588L255.901 171.801L255.719 171.308L255.21 171.178L237.866 166.768L251.916 155.684L252.329 155.358L252.295 154.834L251.13 136.976Z" stroke="#007AFF" stroke-opacity="0.1" stroke-width="2"/>
<path d="M189 0L194.584 11.3143L207.07 13.1287L198.035 21.9357L200.168 34.3713L189 28.5L177.832 34.3713L179.965 21.9357L170.93 13.1287L183.416 11.3143L189 0Z" fill="#007AFF" fill-opacity="0.1"/>
</svg>
